# xmcd
#
# Track frame offsets: 
#        150
#        15533
#        34876
#        51725
#        68138
#        86123
#        105248
#        120806
#        131678
#        149487
#        166750
#        181581
#        202919
#        218584
#        233663
#
# Disc length: 3319 seconds
#
# Revision: 0
# Processed by: cddbd v1.5.2PL0 Copyright (c) Steve Scherf et al.
# Submitted via: ExactAudioCopy v1.3
#
DISCID=c20cf50f
DTITLE=Big Daddy Wilson - Time
DYEAR=2015
DGENRE=Blues
TTITLE0=Time To Move
TTITLE1=Bullfrog
TTITLE2=She Loves Me
TTITLE3=Mississippi John
TTITLE4=Some Say
TTITLE5=Time
TTITLE6=Dead End Road
TTITLE7=Would Ya Look At That Car
TTITLE8=Like A Sunny Day
TTITLE9=New Zealand Aotearoa
TTITLE10=Miss Dorothy Lee
TTITLE11=Mama's Words
TTITLE12=We're Ready
TTITLE13=Daisy
TTITLE14=Nickel And A Nail
EXTD=
EXTT0=
EXTT1=
EXTT2=
EXTT3=
EXTT4=
EXTT5=
EXTT6=
EXTT7=
EXTT8=
EXTT9=
EXTT10=
EXTT11=
EXTT12=
EXTT13=
EXTT14=
PLAYORDER=
